# xmcd
#
# Track frame offsets: 
#        150
#        11324
#        22772
#        33029
#        43390
#        54501
#        64842
#        75800
#        85852
#        95775
#        107546
#        115901
#        124801
#        134783
#        144836
#        155027
#        165653
#        174104
#        183343
#
# Disc length: 2557 seconds
#
# Revision: 0
# Processed by: cddbd v1.5.2PL0 Copyright (c) Steve Scherf et al.
# Submitted via: ExactAudioCopyFreeDBPlugin 1.0
#
DISCID=ea09fb13
DTITLE=Smiley Lewis - I Hear You Knocking 1947-1962  [CD3]
DYEAR=2016
DGENRE=R&B
TTITLE0=Bumpity Bump
TTITLE1=I Hear You Knocking
TTITLE2=Ain't Gonna Do It
TTITLE3=Come On
TTITLE4=Queen Of Hearts
TTITLE5=One Night
TTITLE6=She's Got Me Hook, Line and Sinker
TTITLE7=Please Listen To Me
TTITLE8=Someday You'll Want Me
TTITLE9=Mama Don't Like
TTITLE10=Shame, Shame, Shame
TTITLE11=Shame, Shame, Shame
TTITLE12=I Can't Believe It
TTITLE13=Rootin' And Tootin'
TTITLE14=No, No
TTITLE15=Sweeter Words (Have Never Been Told)
TTITLE16=You Are My Sunshine
TTITLE17=Go On Fool
TTITLE18=Goin' To Jump And Shout
EXTD=
EXTT0=
EXTT1=
EXTT2=
EXTT3=
EXTT4=
EXTT5=
EXTT6=
EXTT7=
EXTT8=
EXTT9=
EXTT10=
EXTT11=
EXTT12=
EXTT13=
EXTT14=
EXTT15=
EXTT16=
EXTT17=
EXTT18=
PLAYORDER=
